<svg width="34" height="60" viewBox="0 0 34 60" fill="none" xmlns="http://www.w3.org/2000/svg">
<path d="M0.802983 28.1308L29.6554 0.713045C30.1369 0.255335 30.7764 0 31.4416 0C32.1067 0 32.7463 0.255335 33.2277 0.713045L33.2588 0.744026C33.4929 0.965915 33.6794 1.233 33.8069 1.52904C33.9343 1.82507 34 2.14387 34 2.46603C34 2.78819 33.9343 3.10699 33.8069 3.40302C33.6794 3.69906 33.4929 3.96614 33.2588 4.18803L6.08889 30.0052L33.2588 55.812C33.4929 56.0339 33.6794 56.3009 33.8069 56.597C33.9343 56.893 34 57.2118 34 57.534C34 57.8561 33.9343 58.1749 33.8069 58.471C33.6794 58.767 33.4929 59.0341 33.2588 59.256L33.2277 59.2869C32.7463 59.7447 32.1067 60 31.4416 60C30.7764 60 30.1369 59.7447 29.6554 59.2869L0.802983 31.8692C0.549237 31.628 0.347228 31.338 0.2092 31.0167C0.0711727 30.6954 0 30.3495 0 30C0 29.6504 0.0711727 29.3045 0.2092 28.9832C0.347228 28.6619 0.549237 28.372 0.802983 28.1308Z" fill="#191919"/>
</svg>
