<svg width="34" height="60" viewBox="0 0 34 60" fill="none" xmlns="http://www.w3.org/2000/svg">
<path d="M33.197 28.1308L4.34456 0.713045C3.86315 0.255335 3.22355 0 2.55843 0C1.89332 0 1.25373 0.255335 0.772308 0.713045L0.741245 0.744026C0.507053 0.965915 0.320572 1.233 0.193142 1.52904C0.065712 1.82507 0 2.14387 0 2.46603C0 2.78819 0.065712 3.10699 0.193142 3.40302C0.320572 3.69906 0.507053 3.96614 0.741245 4.18803L27.9111 30.0052L0.741245 55.812C0.507053 56.0339 0.320572 56.3009 0.193142 56.597C0.065712 56.893 0 57.2118 0 57.534C0 57.8561 0.065712 58.1749 0.193142 58.471C0.320572 58.767 0.507053 59.0341 0.741245 59.256L0.772308 59.2869C1.25373 59.7447 1.89332 60 2.55843 60C3.22355 60 3.86315 59.7447 4.34456 59.2869L33.197 31.8692C33.4508 31.628 33.6528 31.338 33.7908 31.0167C33.9288 30.6954 34 30.3495 34 30C34 29.6504 33.9288 29.3045 33.7908 28.9832C33.6528 28.6619 33.4508 28.372 33.197 28.1308Z" fill="#191919"/>
</svg>
