<svg width="64" height="64" viewBox="0 0 64 64" fill="none" xmlns="http://www.w3.org/2000/svg">
<path d="M10 31L16.7709 16H19.5223L26.3147 31H23.3914L17.5663 17.4786H18.684L12.8803 31H10ZM14.3703 27.5286L15.241 25.5H21.022L21.8959 27.5286H14.3703Z" fill="black"/>
<path d="M28.2283 31V16H30.5283L39.9646 27.55H38.8254V16H41.5982V31H39.2983L29.8619 19.45H31.0012V31H28.2283Z" fill="black"/>
<path d="M45.6301 31V16H47.93L57.3664 27.55H56.2271V16H59V31H56.7L47.2637 19.45H48.4029V31H45.6301Z" fill="black"/>
<path d="M33.4311 43C32.3554 43 31.3256 42.8248 30.3417 42.4744C29.3578 42.1088 28.5772 41.6441 28 41.0804L28.8855 38.7723C29.4365 39.2751 30.1187 39.694 30.932 40.0292C31.7454 40.3644 32.5784 40.5319 33.4311 40.5319C34.1527 40.5319 34.7364 40.4405 35.1825 40.2577C35.6285 40.0749 35.9565 39.8311 36.1664 39.5264C36.3763 39.2065 36.4812 38.8485 36.4812 38.4524C36.4812 37.9649 36.3304 37.5764 36.0286 37.2869C35.7269 36.9822 35.3333 36.7461 34.8479 36.5785C34.3757 36.3957 33.8444 36.2281 33.254 36.0757C32.6768 35.9234 32.093 35.7482 31.5027 35.5501C30.9255 35.3369 30.3942 35.0702 29.9088 34.7503C29.4365 34.4151 29.0495 33.9733 28.7478 33.4249C28.5437 33.054 28.1203 32 28.1203 32L30.932 32C31.0407 32.1369 31.1603 32.2615 31.2665 32.3737C31.5683 32.6631 31.9553 32.8917 32.4275 33.0592C32.9129 33.2268 33.4508 33.3944 34.0411 33.562C34.6315 33.7143 35.2153 33.8895 35.7925 34.0876C36.3828 34.2856 36.9141 34.5446 37.3864 34.8646C37.8718 35.1845 38.2588 35.6187 38.5474 36.1672C38.8491 36.7156 39 37.4088 39 38.2467C39 39.0999 38.7967 39.8921 38.39 40.6234C37.9964 41.3394 37.3864 41.9183 36.5599 42.3601C35.7335 42.7867 34.6905 43 33.4311 43Z" fill="black"/>
<path d="M45 42V32C46.8891 32 47.9237 32 47.9237 32L58.8889 32C58.7931 32.3905 58.6352 32.745 58.4153 33.0635C58.0255 33.6141 57.5007 34.0447 56.841 34.3553C56.1963 34.6518 55.4916 34.8 54.727 34.8L55.1318 34.0376C56.0164 34.0376 56.0014 34.1929 56.706 34.5035C57.4107 34.8 57.9655 35.2376 58.3703 35.8165C58.7901 36.3953 59 37.1153 59 37.9765C59 39.2471 58.4827 40.2353 57.4482 40.9412C56.4137 41.6471 55.6865 42 53.6474 42H45ZM47.9237 39.84H52.8828C53.9773 39.84 55.2304 39.6793 55.6802 39.3318C56.1299 38.9842 56.5613 38.415 56.5573 37.7012C56.5533 36.9947 56.1299 36.3671 55.6802 36.0918C55.2304 35.8165 53.9773 35.5623 52.8828 35.5623H47.6988V33.4235H52.8828C53.9023 33.4235 55.1854 33.2541 55.7252 32.9153C56.0988 32.6871 56.3467 32.382 56.4686 32L47.9237 32V39.84Z" fill="black"/>
<path fill-rule="evenodd" clip-rule="evenodd" d="M12.34 32C12.34 37.2322 16.2686 41.4737 21.1148 41.4737C22.6112 41.4737 24.0169 41.0703 25.247 40.3599C25.4214 40.2592 25.5923 40.1523 25.7595 40.0394L27 42.1815C26.7883 42.3244 26.5718 42.4599 26.3508 42.5875C24.7894 43.4892 23.0056 44 21.1148 44C14.9763 44 10 38.6274 10 32H12.34Z" fill="#FFE141"/>
<path fill-rule="evenodd" clip-rule="evenodd" d="M11.148 24.3933C10.9685 24.5448 11.3189 24.2326 11.148 24.3933C8.6228 26.7672 7.34208 29.9413 7.34208 33.657C7.34208 40.8517 13.2404 46.6841 20.5163 46.6841C23.0794 46.6841 25.4683 45.9614 27.49 44.7115C28.0745 44.3501 29.1469 43.4997 29.1469 43.4997L32 43.9752C32 43.9752 29.9437 45.9258 28.7317 46.6752C26.3485 48.1486 23.5312 49 20.5163 49C11.9469 49 5 42.1307 5 33.657C5 28.0353 8.60909 22.745 13.1973 20.0509C12.8999 20.2006 13.4852 19.8819 13.1973 20.0509L11.148 24.3933Z" fill="#FFE141"/>
</svg>
