<svg width="184" height="56" viewBox="0 0 184 56" fill="none" xmlns="http://www.w3.org/2000/svg">
<path d="M23.6065 0.25L34.7568 24.95H30.4127L28.1227 19.618H29.1679H29.518L29.4044 19.2869L28.1444 15.6149L28.0865 15.446H27.9079H26.3309L21.7017 4.66724L22.5938 2.58235L22.7428 2.234H22.3639H20.4919H20.1125L20.2622 2.58266L21.1577 4.66761L16.5457 15.446H14.2999H14.1214L14.0635 15.6149L12.8035 19.2869L12.6899 19.618H13.0399H14.7605L12.479 24.95H8.20659L19.3216 0.25H23.6065ZM28.8179 19.118H27.9079L26.5456 15.946H27.7294L28.8179 19.118ZM16.8756 15.946H26.0015L27.3638 19.118H15.5183L16.8756 15.946ZM14.4785 15.946H16.3317L14.9745 19.118H13.39L14.4785 15.946ZM21.985 2.734L21.4293 4.03292L20.8714 2.734H21.985ZM42.082 0.25L55.8468 17.1503V19.404V19.654H56.0968H58.0048H58.5308L58.1986 19.2461L56.3468 16.9725V0.25H60.4908V24.95H57.0076L43.2428 8.0497V5.796V5.546H42.9928H41.0848H40.5587L40.8909 5.95388L42.7428 8.22755V24.95H38.5988V0.25H42.082ZM56.3468 19.154V17.7642L57.4787 19.154H56.3468ZM42.7428 6.046V7.4358L41.6108 6.046H42.7428ZM84.9913 17.1503V19.404V19.654H85.2413H87.1493H87.6754L87.3432 19.2461L85.4913 16.9725V0.25H89.6353V24.95H86.1521L72.3873 8.0497V5.796V5.546H72.1373H70.2293H69.7033L70.0355 5.95388L71.8873 8.22755V24.95H67.7433V0.25H71.2265L84.9913 17.1503ZM71.8873 6.046V7.4358L70.7554 6.046H71.8873ZM85.4913 17.7642L86.6233 19.154H85.4913V17.7642Z" fill="black" stroke="black" stroke-width="0.5"/>
<path d="M48.196 44.56C46.228 44.56 44.344 44.284 42.544 43.732C40.744 43.156 39.316 42.424 38.26 41.536L39.88 37.9C40.888 38.692 42.136 39.352 43.624 39.88C45.112 40.408 46.636 40.672 48.196 40.672C49.516 40.672 50.584 40.528 51.4 40.24C52.216 39.952 52.816 39.568 53.2 39.088C53.584 38.584 53.776 38.02 53.776 37.396C53.776 36.628 53.5 36.016 52.948 35.56C52.396 35.08 51.676 34.708 50.788 34.444C49.924 34.156 48.952 33.892 47.872 33.652C46.816 33.412 45.748 33.136 44.668 32.824C43.612 32.488 42.64 32.068 41.752 31.564C40.888 31.036 40.18 30.34 39.628 29.476C39.2547 28.8918 38.48 27.2314 38.48 27.2314L43.624 27.2314C43.8229 27.4471 44.0416 27.6433 44.236 27.82C44.788 28.276 45.496 28.636 46.36 28.9C47.248 29.164 48.232 29.428 49.312 29.692C50.392 29.932 51.46 30.208 52.516 30.52C53.596 30.832 54.568 31.24 55.432 31.744C56.32 32.248 57.028 32.932 57.556 33.796C58.108 34.66 58.384 35.752 58.384 37.072C58.384 38.416 58.012 39.664 57.268 40.816C56.548 41.944 55.432 42.856 53.92 43.552C52.408 44.224 50.5 44.56 48.196 44.56Z" fill="black"/>
<path d="M67.5 44.2V27.2C70.524 27.2 72.18 27.2 72.18 27.2L89.7323 27.2C89.5789 27.8638 89.3262 28.4664 88.9742 29.008C88.3502 29.944 87.5102 30.676 86.4542 31.204C85.4222 31.708 84.2942 31.96 83.0702 31.96L83.7182 30.664C85.1342 30.664 85.1101 30.928 86.2381 31.456C87.3661 31.96 88.2541 32.704 88.9021 33.688C89.5741 34.672 89.9101 35.896 89.9101 37.36C89.9101 39.52 89.0821 41.2 87.4261 42.4C85.7701 43.6 84.6062 44.2 81.3422 44.2H67.5ZM72.18 40.528H80.1182C81.8702 40.528 83.876 40.2548 84.596 39.664C85.316 39.0732 86.0064 38.1055 86 36.892C85.9936 35.6911 85.316 34.624 84.596 34.156C83.876 33.688 81.8702 33.256 80.1182 33.256H71.82V29.62H80.1182C81.7502 29.62 83.804 29.332 84.668 28.756C85.2662 28.368 85.6629 27.8494 85.8581 27.2L72.18 27.2V40.528Z" fill="black"/>
<path d="M101.96 28.248C101.171 28.248 100.461 28.072 99.832 27.72C99.2133 27.3573 98.7227 26.8613 98.36 26.232C98.008 25.592 97.832 24.8613 97.832 24.04C97.832 23.2187 98.008 22.4933 98.36 21.864C98.7227 21.224 99.2133 20.728 99.832 20.376C100.461 20.0133 101.171 19.832 101.96 19.832C102.589 19.832 103.171 19.9547 103.704 20.2C104.237 20.4347 104.68 20.7867 105.032 21.256L104.632 21.592C104.323 21.1547 103.933 20.8347 103.464 20.632C103.005 20.4293 102.504 20.328 101.96 20.328C101.277 20.328 100.664 20.4827 100.12 20.792C99.576 21.1013 99.144 21.5387 98.824 22.104C98.5147 22.6587 98.36 23.304 98.36 24.04C98.36 24.776 98.5147 25.4267 98.824 25.992C99.144 26.5467 99.576 26.984 100.12 27.304C100.664 27.6133 101.277 27.768 101.96 27.768C102.504 27.768 103.005 27.6667 103.464 27.464C103.933 27.2507 104.323 26.9307 104.632 26.504L105.032 26.824C104.68 27.304 104.237 27.6613 103.704 27.896C103.171 28.1307 102.589 28.248 101.96 28.248ZM107.417 28.2V16.328H107.945V28.2H107.417ZM114.759 28.248C113.937 28.248 113.212 28.072 112.583 27.72C111.953 27.3573 111.457 26.856 111.095 26.216C110.732 25.576 110.551 24.8507 110.551 24.04C110.551 23.2187 110.716 22.4933 111.047 21.864C111.388 21.2347 111.852 20.7387 112.439 20.376C113.036 20.0133 113.708 19.832 114.455 19.832C115.191 19.832 115.852 20.008 116.439 20.36C117.036 20.712 117.5 21.2027 117.831 21.832C118.172 22.4507 118.343 23.1653 118.343 23.976C118.343 23.9973 118.343 24.024 118.343 24.056C118.343 24.0773 118.343 24.0987 118.343 24.12H110.903V23.688H118.055L117.847 23.944C117.847 23.2507 117.697 22.632 117.399 22.088C117.111 21.5333 116.711 21.1013 116.199 20.792C115.687 20.472 115.105 20.312 114.455 20.312C113.804 20.312 113.223 20.472 112.711 20.792C112.199 21.1013 111.793 21.5333 111.495 22.088C111.207 22.632 111.063 23.256 111.063 23.96V24.056C111.063 24.7813 111.223 25.4267 111.543 25.992C111.863 26.5467 112.3 26.984 112.855 27.304C113.409 27.6133 114.044 27.768 114.759 27.768C115.303 27.768 115.815 27.6667 116.295 27.464C116.785 27.2613 117.191 26.952 117.511 26.536L117.847 26.888C117.473 27.336 117.015 27.6773 116.471 27.912C115.937 28.136 115.367 28.248 114.759 28.248ZM125.994 28.2V26.264L125.978 25.976V22.824C125.978 22.0027 125.759 21.3787 125.322 20.952C124.884 20.5253 124.25 20.312 123.418 20.312C122.81 20.312 122.255 20.4187 121.754 20.632C121.252 20.8347 120.82 21.1013 120.458 21.432L120.17 21.048C120.564 20.6747 121.05 20.3813 121.626 20.168C122.202 19.944 122.804 19.832 123.434 19.832C124.426 19.832 125.183 20.088 125.706 20.6C126.239 21.1013 126.506 21.8427 126.506 22.824V28.2H125.994ZM122.906 28.248C122.276 28.248 121.738 28.152 121.289 27.96C120.852 27.768 120.516 27.496 120.282 27.144C120.047 26.7813 119.93 26.3707 119.93 25.912C119.93 25.5067 120.026 25.1333 120.218 24.792C120.41 24.44 120.724 24.1627 121.162 23.96C121.61 23.7467 122.207 23.64 122.954 23.64H126.17V24.072H122.954C122.047 24.072 121.402 24.2427 121.018 24.584C120.644 24.9253 120.458 25.3573 120.458 25.88C120.458 26.4667 120.676 26.936 121.114 27.288C121.551 27.6293 122.159 27.8 122.938 27.8C123.706 27.8 124.34 27.6293 124.842 27.288C125.343 26.936 125.722 26.44 125.978 25.8L126.154 26.152C125.94 26.7813 125.556 27.288 125.002 27.672C124.447 28.056 123.748 28.248 122.906 28.248ZM133.884 19.832C134.566 19.832 135.153 19.9653 135.644 20.232C136.145 20.4987 136.534 20.8933 136.812 21.416C137.089 21.928 137.227 22.5627 137.227 23.32V28.2H136.7V23.352C136.7 22.36 136.449 21.608 135.948 21.096C135.446 20.584 134.742 20.328 133.836 20.328C133.142 20.328 132.545 20.4667 132.044 20.744C131.542 21.0213 131.158 21.416 130.892 21.928C130.625 22.44 130.492 23.0373 130.492 23.72V28.2H129.964V19.896H130.476V22.232L130.412 22.088C130.668 21.3947 131.089 20.8453 131.676 20.44C132.273 20.0347 133.009 19.832 133.884 19.832ZM140.682 28.2V19.896H141.21V28.2H140.682ZM140.938 17.72C140.8 17.72 140.677 17.6667 140.57 17.56C140.464 17.4533 140.41 17.336 140.41 17.208C140.41 17.0587 140.464 16.936 140.57 16.84C140.677 16.7333 140.8 16.68 140.938 16.68C141.088 16.68 141.21 16.7333 141.306 16.84C141.413 16.936 141.466 17.0533 141.466 17.192C141.466 17.3307 141.413 17.4533 141.306 17.56C141.21 17.6667 141.088 17.72 140.938 17.72ZM148.68 19.832C149.363 19.832 149.95 19.9653 150.44 20.232C150.942 20.4987 151.331 20.8933 151.608 21.416C151.886 21.928 152.024 22.5627 152.024 23.32V28.2H151.496V23.352C151.496 22.36 151.246 21.608 150.744 21.096C150.243 20.584 149.539 20.328 148.632 20.328C147.939 20.328 147.342 20.4667 146.84 20.744C146.339 21.0213 145.955 21.416 145.688 21.928C145.422 22.44 145.288 23.0373 145.288 23.72V28.2H144.76V19.896H145.272V22.232L145.208 22.088C145.464 21.3947 145.886 20.8453 146.472 20.44C147.07 20.0347 147.806 19.832 148.68 19.832ZM158.871 31.352C158.124 31.352 157.415 31.2293 156.743 30.984C156.082 30.7493 155.548 30.424 155.143 30.008L155.447 29.608C155.874 30.0133 156.38 30.3227 156.967 30.536C157.554 30.76 158.183 30.872 158.855 30.872C160.018 30.872 160.876 30.5947 161.431 30.04C161.986 29.496 162.263 28.6373 162.263 27.464V24.952L162.423 23.864L162.279 22.776V19.896H162.791V27.4C162.791 28.7547 162.466 29.752 161.815 30.392C161.164 31.032 160.183 31.352 158.871 31.352ZM158.647 27.912C157.868 27.912 157.17 27.7413 156.551 27.4C155.932 27.048 155.442 26.568 155.079 25.96C154.716 25.352 154.535 24.6533 154.535 23.864C154.535 23.0747 154.716 22.376 155.079 21.768C155.442 21.16 155.932 20.6853 156.551 20.344C157.17 20.0027 157.868 19.832 158.647 19.832C159.415 19.832 160.098 20.0027 160.695 20.344C161.292 20.6747 161.767 21.144 162.119 21.752C162.471 22.3493 162.647 23.0533 162.647 23.864C162.647 24.6747 162.471 25.384 162.119 25.992C161.767 26.6 161.292 27.0747 160.695 27.416C160.098 27.7467 159.415 27.912 158.647 27.912ZM158.663 27.432C159.367 27.432 159.986 27.2827 160.519 26.984C161.063 26.6853 161.49 26.264 161.799 25.72C162.108 25.176 162.263 24.5573 162.263 23.864C162.263 23.16 162.108 22.5467 161.799 22.024C161.49 21.4907 161.063 21.0747 160.519 20.776C159.986 20.4773 159.367 20.328 158.663 20.328C157.98 20.328 157.367 20.4773 156.823 20.776C156.279 21.0747 155.847 21.4907 155.527 22.024C155.218 22.5467 155.063 23.16 155.063 23.864C155.063 24.5573 155.218 25.176 155.527 25.72C155.847 26.264 156.279 26.6853 156.823 26.984C157.367 27.2827 157.98 27.432 158.663 27.432Z" fill="black"/>
<path d="M100.776 44.248C100.093 44.248 99.4533 44.1467 98.856 43.944C98.2587 43.7307 97.8053 43.464 97.496 43.144L97.752 42.728C98.0613 43.0053 98.4827 43.2507 99.016 43.464C99.5493 43.6773 100.141 43.784 100.792 43.784C101.72 43.784 102.387 43.624 102.792 43.304C103.208 42.984 103.416 42.568 103.416 42.056C103.416 41.6827 103.315 41.3893 103.112 41.176C102.909 40.9627 102.643 40.7973 102.312 40.68C101.981 40.5627 101.613 40.472 101.208 40.408C100.813 40.3333 100.413 40.2533 100.008 40.168C99.6027 40.072 99.2347 39.9493 98.904 39.8C98.5733 39.64 98.3067 39.4213 98.104 39.144C97.9013 38.8667 97.8 38.4987 97.8 38.04C97.8 37.6453 97.9067 37.2827 98.12 36.952C98.344 36.6213 98.68 36.3547 99.128 36.152C99.576 35.9387 100.147 35.832 100.84 35.832C101.352 35.832 101.864 35.912 102.376 36.072C102.899 36.2213 103.315 36.424 103.624 36.68L103.352 37.096C103.021 36.8293 102.632 36.632 102.184 36.504C101.747 36.376 101.293 36.312 100.824 36.312C99.96 36.312 99.3307 36.4773 98.936 36.808C98.5413 37.1387 98.344 37.544 98.344 38.024C98.344 38.408 98.4453 38.7173 98.648 38.952C98.8507 39.176 99.1173 39.3467 99.448 39.464C99.7787 39.5813 100.141 39.6773 100.536 39.752C100.941 39.8267 101.341 39.9067 101.736 39.992C102.141 40.0773 102.509 40.1947 102.84 40.344C103.171 40.4933 103.437 40.7013 103.64 40.968C103.843 41.2347 103.944 41.5973 103.944 42.056C103.944 42.4827 103.821 42.8667 103.576 43.208C103.341 43.5387 102.989 43.7947 102.52 43.976C102.061 44.1573 101.48 44.248 100.776 44.248ZM109.556 44.248C108.734 44.248 108.009 44.072 107.38 43.72C106.75 43.3573 106.254 42.856 105.892 42.216C105.529 41.576 105.348 40.8507 105.348 40.04C105.348 39.2187 105.513 38.4933 105.844 37.864C106.185 37.2347 106.649 36.7387 107.236 36.376C107.833 36.0133 108.505 35.832 109.252 35.832C109.988 35.832 110.649 36.008 111.236 36.36C111.833 36.712 112.297 37.2027 112.628 37.832C112.969 38.4507 113.14 39.1653 113.14 39.976C113.14 39.9973 113.14 40.024 113.14 40.056C113.14 40.0773 113.14 40.0987 113.14 40.12H105.7V39.688H112.852L112.644 39.944C112.644 39.2507 112.494 38.632 112.196 38.088C111.908 37.5333 111.508 37.1013 110.996 36.792C110.484 36.472 109.902 36.312 109.252 36.312C108.601 36.312 108.02 36.472 107.508 36.792C106.996 37.1013 106.59 37.5333 106.292 38.088C106.004 38.632 105.86 39.256 105.86 39.96V40.056C105.86 40.7813 106.02 41.4267 106.34 41.992C106.66 42.5467 107.097 42.984 107.652 43.304C108.206 43.6133 108.841 43.768 109.556 43.768C110.1 43.768 110.612 43.6667 111.092 43.464C111.582 43.2613 111.988 42.952 112.308 42.536L112.644 42.888C112.27 43.336 111.812 43.6773 111.268 43.912C110.734 44.136 110.164 44.248 109.556 44.248ZM115.745 44.2V35.896H116.257V38.184L116.209 38.04C116.433 37.3467 116.822 36.808 117.377 36.424C117.942 36.0293 118.646 35.832 119.489 35.832V36.36C119.467 36.36 119.441 36.36 119.409 36.36C119.387 36.36 119.366 36.36 119.345 36.36C118.385 36.36 117.633 36.664 117.089 37.272C116.545 37.88 116.273 38.7173 116.273 39.784V44.2H115.745ZM124.278 44.2L120.486 35.896H121.062L124.662 43.88H124.422L128.038 35.896H128.598L124.806 44.2H124.278ZM130.448 44.2V35.896H130.976V44.2H130.448ZM130.704 33.72C130.565 33.72 130.443 33.6667 130.336 33.56C130.229 33.4533 130.176 33.336 130.176 33.208C130.176 33.0587 130.229 32.936 130.336 32.84C130.443 32.7333 130.565 32.68 130.704 32.68C130.853 32.68 130.976 32.7333 131.072 32.84C131.179 32.936 131.232 33.0533 131.232 33.192C131.232 33.3307 131.179 33.4533 131.072 33.56C130.976 33.6667 130.853 33.72 130.704 33.72ZM137.71 44.248C136.921 44.248 136.211 44.072 135.582 43.72C134.963 43.3573 134.473 42.8613 134.11 42.232C133.758 41.592 133.582 40.8613 133.582 40.04C133.582 39.2187 133.758 38.4933 134.11 37.864C134.473 37.224 134.963 36.728 135.582 36.376C136.211 36.0133 136.921 35.832 137.71 35.832C138.339 35.832 138.921 35.9547 139.454 36.2C139.987 36.4347 140.43 36.7867 140.782 37.256L140.382 37.592C140.073 37.1547 139.683 36.8347 139.214 36.632C138.755 36.4293 138.254 36.328 137.71 36.328C137.027 36.328 136.414 36.4827 135.87 36.792C135.326 37.1013 134.894 37.5387 134.574 38.104C134.265 38.6587 134.11 39.304 134.11 40.04C134.11 40.776 134.265 41.4267 134.574 41.992C134.894 42.5467 135.326 42.984 135.87 43.304C136.414 43.6133 137.027 43.768 137.71 43.768C138.254 43.768 138.755 43.6667 139.214 43.464C139.683 43.2507 140.073 42.9307 140.382 42.504L140.782 42.824C140.43 43.304 139.987 43.6613 139.454 43.896C138.921 44.1307 138.339 44.248 137.71 44.248ZM146.415 44.248C145.594 44.248 144.868 44.072 144.239 43.72C143.61 43.3573 143.114 42.856 142.751 42.216C142.388 41.576 142.207 40.8507 142.207 40.04C142.207 39.2187 142.372 38.4933 142.703 37.864C143.044 37.2347 143.508 36.7387 144.095 36.376C144.692 36.0133 145.364 35.832 146.111 35.832C146.847 35.832 147.508 36.008 148.095 36.36C148.692 36.712 149.156 37.2027 149.487 37.832C149.828 38.4507 149.999 39.1653 149.999 39.976C149.999 39.9973 149.999 40.024 149.999 40.056C149.999 40.0773 149.999 40.0987 149.999 40.12H142.559V39.688H149.711L149.503 39.944C149.503 39.2507 149.354 38.632 149.055 38.088C148.767 37.5333 148.367 37.1013 147.855 36.792C147.343 36.472 146.762 36.312 146.111 36.312C145.46 36.312 144.879 36.472 144.367 36.792C143.855 37.1013 143.45 37.5333 143.151 38.088C142.863 38.632 142.719 39.256 142.719 39.96V40.056C142.719 40.7813 142.879 41.4267 143.199 41.992C143.519 42.5467 143.956 42.984 144.511 43.304C145.066 43.6133 145.7 43.768 146.415 43.768C146.959 43.768 147.471 43.6667 147.951 43.464C148.442 43.2613 148.847 42.952 149.167 42.536L149.503 42.888C149.13 43.336 148.671 43.6773 148.127 43.912C147.594 44.136 147.023 44.248 146.415 44.248ZM156.923 44.2V33H157.467V43.704H164.027V44.2H156.923ZM168.141 44.248C167.459 44.248 166.936 44.056 166.573 43.672C166.211 43.288 166.029 42.7707 166.029 42.12V34.072H166.557V42.04C166.557 42.6053 166.696 43.0373 166.973 43.336C167.251 43.6347 167.656 43.784 168.189 43.784C168.733 43.784 169.181 43.6187 169.533 43.288L169.805 43.672C169.603 43.864 169.352 44.008 169.053 44.104C168.755 44.2 168.451 44.248 168.141 44.248ZM164.461 36.36V35.896H169.293V36.36H164.461ZM174.959 44.248C174.191 44.248 173.497 44.072 172.879 43.72C172.271 43.3573 171.785 42.8613 171.423 42.232C171.071 41.592 170.895 40.8613 170.895 40.04C170.895 39.208 171.071 38.4827 171.423 37.864C171.785 37.2347 172.271 36.7387 172.879 36.376C173.497 36.0133 174.191 35.832 174.959 35.832C175.705 35.832 176.377 36.008 176.975 36.36C177.572 36.712 178.041 37.2027 178.383 37.832C178.735 38.4613 178.911 39.1973 178.911 40.04C178.911 40.872 178.735 41.608 178.383 42.248C178.041 42.888 177.572 43.384 176.975 43.736C176.377 44.0773 175.705 44.248 174.959 44.248ZM174.975 43.768C175.657 43.768 176.265 43.6133 176.799 43.304C177.332 42.984 177.753 42.5413 178.062 41.976C178.372 41.4107 178.527 40.7653 178.527 40.04C178.527 39.304 178.372 38.6587 178.062 38.104C177.753 37.5387 177.332 37.1013 176.799 36.792C176.265 36.4827 175.657 36.328 174.975 36.328C174.303 36.328 173.7 36.4827 173.167 36.792C172.633 37.1013 172.207 37.5387 171.887 38.104C171.577 38.6587 171.423 39.304 171.423 40.04C171.423 40.7653 171.577 41.4107 171.887 41.976C172.207 42.5413 172.633 42.984 173.167 43.304C173.7 43.6133 174.303 43.768 174.975 43.768ZM178.543 44.2V41.288L178.687 40.024L178.527 38.76V32.328H179.055V44.2H178.543ZM182.348 44.248C182.209 44.248 182.087 44.2 181.98 44.104C181.873 43.9973 181.82 43.8693 181.82 43.72C181.82 43.5707 181.873 43.448 181.98 43.352C182.087 43.2453 182.209 43.192 182.348 43.192C182.497 43.192 182.62 43.2453 182.716 43.352C182.823 43.448 182.876 43.5707 182.876 43.72C182.876 43.8693 182.823 43.9973 182.716 44.104C182.62 44.2 182.497 44.248 182.348 44.248Z" fill="black"/>
<path fill-rule="evenodd" clip-rule="evenodd" d="M12 27.2C12 35.4843 18.7157 42.2 27 42.2C29.558 42.2 31.9608 41.5614 34.0637 40.4365C34.3618 40.277 34.654 40.1077 34.9397 39.9291L37.0603 43.3207C36.6984 43.547 36.3283 43.7615 35.9505 43.9636C33.2814 45.3913 30.2322 46.2 27 46.2C16.5066 46.2 8 37.6934 8 27.2H12Z" fill="#FFE141"/>
<path fill-rule="evenodd" clip-rule="evenodd" d="M10.5 12.7C10.1935 12.9617 10.7919 12.4225 10.5 12.7C6.18732 16.8001 4 22.2823 4 28.7C4 41.1264 14.0736 51.2 26.5 51.2C30.8775 51.2 34.9574 49.9519 38.4103 47.793C39.4086 47.1688 41.24 45.7 41.24 45.7L46.1128 46.5213C46.1128 46.5213 42.6009 49.8904 40.5309 51.1846C36.4607 53.7295 31.649 55.2 26.5 55.2C11.8645 55.2 0 43.3355 0 28.7C0 18.9904 6.1639 9.85313 14 5.20001C13.492 5.45845 14.4917 4.90802 14 5.20001L10.5 12.7Z" fill="#FFE141"/>
</svg>
