<svg width="21.000000" height="30.000000" viewBox="0 0 21 30" fill="none" xmlns="http://www.w3.org/2000/svg" xmlns:xlink="http://www.w3.org/1999/xlink">
	
	<defs/>
	<path id="Vector" d="M10.5 14.25C9.5 14.25 8.55 13.85 7.84 13.15C7.14 12.44 6.75 11.49 6.75 10.5C6.75 9.5 7.14 8.55 7.84 7.84C8.55 7.14 9.5 6.75 10.5 6.75C11.49 6.75 12.44 7.14 13.15 7.84C13.85 8.55 14.25 9.5 14.25 10.5C14.25 10.99 14.15 11.48 13.96 11.93C13.77 12.39 13.49 12.8 13.15 13.15C12.8 13.49 12.39 13.77 11.93 13.96C11.48 14.15 10.99 14.25 10.5 14.25ZM10.5 0C7.71 0 5.04 1.1 3.07 3.07C1.1 5.04 0 7.71 0 10.5C0 18.37 10.5 30 10.5 30C10.5 30 21 18.37 21 10.5C21 7.71 19.89 5.04 17.92 3.07C15.95 1.1 13.28 0 10.5 0Z" fill="#000000" fill-opacity="1.000000" fill-rule="nonzero"/>
</svg>
