<svg width="29" height="30" viewBox="0 0 29 30" fill="none" xmlns="http://www.w3.org/2000/svg">
<path d="M1.46636 11.9571C4.84744 19.5785 10.8552 25.619 18.3132 28.8959L19.5107 29.4482C20.8369 30.0595 22.3289 30.1667 23.7239 29.7508C25.119 29.335 26.3274 28.4228 27.1363 27.175L28.702 24.7615C28.947 24.3829 29.0462 23.9232 28.98 23.4727C28.9138 23.0223 28.6871 22.6138 28.3445 22.3278L23.04 17.8981C22.8553 17.7439 22.6423 17.63 22.414 17.5631C22.1857 17.4963 21.9466 17.4779 21.7112 17.509C21.4759 17.5402 21.249 17.6202 21.0443 17.7444C20.8395 17.8686 20.6612 18.0343 20.5198 18.2317L18.8785 20.5231C14.6652 18.3692 11.2548 14.8385 9.17475 10.4769L11.3867 8.77789C11.5773 8.63162 11.7375 8.44698 11.8574 8.23505C11.9774 8.02313 12.0548 7.7883 12.0849 7.54465C12.115 7.30101 12.0972 7.05358 12.0326 6.81723C11.968 6.58088 11.8579 6.36047 11.709 6.16925L7.42949 0.678548C7.15317 0.323901 6.75856 0.0892155 6.3234 0.0207221C5.88824 -0.0477713 5.44408 0.0548927 5.0784 0.308491L2.73084 1.9382C1.51814 2.78 0.633512 4.04008 0.234553 5.49397C-0.164406 6.94787 -0.0517886 8.50115 0.552342 9.87712L1.46636 11.9571Z" fill="black"/>
</svg>
